<svg height='100px' width='100px'  fill="#000000" xmlns="http://www.w3.org/2000/svg" viewBox="0 0 64 64" x="0px" y="0px"><g><path d="M33.7578,19.2866a1.75,1.75,0,1,0-3.5,0V35.2211A1.75,1.75,0,0,0,33.22,36.4838l5.9473-5.709A1.75,1.75,0,1,0,36.7432,28.25l-2.9854,2.8662Z"></path><path d="M51.0557,13.2016a1.75,1.75,0,1,0-2.3653,2.58A24.7,24.7,0,1,1,28.8588,9.487l-1.393,1.8347a1.75,1.75,0,0,0,2.7871,2.1172L33.97,8.5434a1.7509,1.7509,0,0,0-.1806-2.32L29.3574,1.9643a1.75,1.75,0,0,0-2.4258,2.5234l1.5763,1.5149a28.21,28.21,0,1,0,22.5478,7.199Z"></path><path d="M38.5244,10.1586a24.5955,24.5955,0,0,1,4.0664,1.5049l1.0821.5938a1.75,1.75,0,0,0,1.6835-3.0684L44.19,8.5512a28.1121,28.1121,0,0,0-4.7452-1.7695,1.75,1.75,0,0,0-.92,3.3769Z"></path><path d="M30.2578,50.3344V53.15a1.75,1.75,0,1,0,3.5,0V50.3344a1.75,1.75,0,0,0-3.5,0Z"></path><path d="M18.4111,34.0961a1.75,1.75,0,0,0-1.75-1.75H13.8457a1.75,1.75,0,0,0,0,3.5h2.8154A1.75,1.75,0,0,0,18.4111,34.0961Z"></path><path d="M50.5215,35.8461a1.75,1.75,0,0,0,0-3.5H47.7061a1.75,1.75,0,0,0,0,3.5Z"></path><path d="M18.4863,49.1655a1.7434,1.7434,0,0,0,1.2373-.5127l1.99-1.99a1.75,1.75,0,0,0-2.4746-2.4746l-1.99,1.99a1.75,1.75,0,0,0,1.2373,2.9873Z"></path><path d="M44.3213,19.1069l-1.9912,1.99a1.75,1.75,0,1,0,2.4746,2.4746l1.9912-1.99a1.75,1.75,0,0,0-2.4746-2.4746Z"></path><path d="M22.3447,21.8539l-1.9912-1.9912a1.75,1.75,0,0,0-2.4746,2.4746L19.87,24.3286a1.75,1.75,0,0,0,2.4746-2.4747Z"></path><path d="M44.2969,43.8061a1.75,1.75,0,0,0-2.4746,2.4746l1.99,1.99a1.75,1.75,0,1,0,2.4746-2.4746Z"></path></g></svg>