<svg height='100px' width='100px'  fill="#000000" xmlns="http://www.w3.org/2000/svg" data-name="Layer 1" viewBox="0 0 70 70" x="0px" y="0px"><path d="M43.62,60.83h0a1,1,0,0,1-.73-.35l-4.31-5A19,19,0,0,1,34,43.16V5.86a2.87,2.87,0,0,1,5.36-1.4s0,.07,0,.1l9,21.5h0a24.09,24.09,0,0,1,1.11,15.37,5.94,5.94,0,0,0,4,7.28,1,1,0,0,1,.7.7,1,1,0,0,1-.24,1L44.34,60.52A1,1,0,0,1,43.62,60.83ZM36.89,5a1.2,1.2,0,0,0-.25,0,.83.83,0,0,0-.64.83v37.3a16.94,16.94,0,0,0,4.07,11l3.58,4.18,7.9-8.29a8,8,0,0,1-4-9.06,22.19,22.19,0,0,0-1-14.16l-9-21.43A.78.78,0,0,0,36.89,5Z"></path><path d="M40.87,36.19a1,1,0,0,1-1-1V23.75a1.94,1.94,0,0,0-3.87,0V35.19a1,1,0,0,1-2,0V23.75a3.94,3.94,0,0,1,7.87,0V35.19A1,1,0,0,1,40.87,36.19Z"></path><path d="M47.4,67a1,1,0,0,1-.69-.28l-3.53-3.36a3.1,3.1,0,0,1-1-2.18A3.14,3.14,0,0,1,43.07,59l9.56-10A3.12,3.12,0,0,1,57,48.81l3.53,3.37a1,1,0,0,1,0,1.41L48.13,66.69A1,1,0,0,1,47.4,67Zm7.49-17h0a1.11,1.11,0,0,0-.78.35l-9.56,10a1.11,1.11,0,0,0,0,1.58l2.81,2.68L58.46,52.93l-2.8-2.67A1.11,1.11,0,0,0,54.89,50Z"></path><path d="M26.38,60.83a1,1,0,0,1-.72-.31L16,50.36a1,1,0,0,1-.24-1,1,1,0,0,1,.7-.7,5.92,5.92,0,0,0,4-7.21,24.2,24.2,0,0,1,1.1-15.44h0l9-21.5.05-.1A2.87,2.87,0,0,1,36,5.86v37.3a18.93,18.93,0,0,1-4.55,12.3l-4.31,5a1,1,0,0,1-.73.35ZM18.45,50.05l7.9,8.29,3.58-4.18a16.94,16.94,0,0,0,4.07-11V5.86a.86.86,0,0,0-1.59-.46l-9,21.43a22.18,22.18,0,0,0-1,14.1A8,8,0,0,1,18.45,50.05Z"></path><path d="M35,36.19a1,1,0,0,1-1-1V23.75a1.94,1.94,0,0,0-3.87,0V35.19a1,1,0,0,1-2,0V23.75a3.94,3.94,0,0,1,7.87,0V35.19A1,1,0,0,1,35,36.19Z"></path><path d="M22.6,67a1,1,0,0,1-.73-.31L9.4,53.59a1,1,0,0,1,0-1.41L13,48.81a3.12,3.12,0,0,1,4.41.11l9.56,10a3.14,3.14,0,0,1,.86,2.23,3.1,3.1,0,0,1-1,2.18l-3.53,3.36A1,1,0,0,1,22.6,67ZM11.54,52.93,22.63,64.59l2.81-2.68a1.11,1.11,0,0,0,0-1.58l-9.56-10a1.11,1.11,0,0,0-.78-.35,1.13,1.13,0,0,0-.8.31Z"></path></svg>