<?xml version="1.0" encoding="UTF-8"?>
<svg width="128pt" height="128pt" version="1.1" viewBox="0 0 128 128" xmlns="http://www.w3.org/2000/svg">
 <g fill="#fff">
  <path d="m64 118.88c15.223 0.015625 29.828-6.0195 40.602-16.777 10.77-10.754 16.828-25.352 16.84-40.574 0.007813-15.223-6.0312-29.824-16.789-40.594-10.762-10.77-25.359-16.82-40.582-16.828-15.223-0.003907-29.824 6.0391-40.59 16.805-10.766 10.762-16.812 25.359-16.812 40.582 0.011719 15.207 6.0547 29.789 16.805 40.547 10.746 10.758 25.32 16.812 40.527 16.84zm0-106.67v0.003906c13.105-0.015625 25.676 5.1797 34.949 14.438 9.2734 9.2617 14.484 21.824 14.492 34.93 0.003906 13.105-5.1992 25.672-14.465 34.941-9.2695 9.2656-21.836 14.469-34.941 14.465-13.105-0.007812-25.668-5.2188-34.93-14.492-9.2578-9.2734-14.453-21.844-14.438-34.949 0-13.09 5.1953-25.645 14.445-34.902 9.25-9.2617 21.797-14.469 34.887-14.484z"/>
  <path d="m77.172 82.828c1.5625 1.5586 4.0938 1.5586 5.6562 0 1.5586-1.5625 1.5586-4.0938 0-5.6562l-14.828-14.828v-35.676c0-2.2109-1.7891-4-4-4s-4 1.7891-4 4v37.332c0 1.0586 0.42188 2.0781 1.1719 2.8281z"/>
 </g>
</svg>
