<?xml version="1.0" encoding="UTF-8"?>
<svg width="512pt" height="512pt" version="1.1" viewBox="0 0 512 512" xmlns="http://www.w3.org/2000/svg">
 <g fill="#ff001b" fill-rule="evenodd">
  <path d="m228.06 39.922c-12 0.98438-27.574 2.832-38.398 5.7617-15.512 4.1836-27.16 17-42.238 15.359-5.4414 11.703-20.656 8.9609-28.801 26.879-6.5664-7.3281 7.6406-10.199 9.6016-15.359-15.762 14.543-31.625 17.984-34.559 36.48-6.8008-0.20703 4.0781-6.3438-1.9219-5.7617-3.1367 8.3828-13.938 9.1055-11.52 23.039-15.105-3.3672-14.801 22.984-26.879 28.801-4.7344 26.832-19.031 42.496-13.441 69.121-2.7695-0.43359-0.66406-5.7266-3.8398-5.7617-4.5508 6.3438 1.5859 14.664-1.9219 19.199h-1.9219v30.719c17.145 119.2 85.168 189.93 207.36 209.28h32.641c66.398-4.5352 127.02-47.848 165.13-97.922 94.93-151.45-12.297-356-209.29-339.84zm-9.5977 412.8c-17.68-7.7852-31.945-14.32-53.762-21.121 1.5859-5.4336-2.7031-4.9766-1.9219-9.6016-10.992 9.5742-19.742-12.504-26.879-19.199-8.5586 2.8711 3.1602 3.4414-1.9219 7.6797-5.8555 0.24609-5.3906-9.9922-3.8398-11.512-5.5742-8.8242-12.223-4.6406-19.199-11.52 0.83984-2.8398 2.457 0.76172 5.7617 0-7.2656-4.4961-6.6562-11.297-19.199-13.441 1.6484-15.922-10.281-25.832-19.199-42.238-7.5938-13.961-5.9375-30.617-17.281-48 8.6562 9.5273 1.1992-31.855 1.9219-48 1.6719-37.426 25.594-71.848 38.398-101.76 17.559-11.879 30.207-28.672 46.078-42.238 21.129-11.129 42.777-16.145 65.281-28.801 71.793-11.977 155.79 18.512 199.68 67.199 28.617 45.734 53.586 99.391 40.32 163.2-20.961 100.8-120.54 181.4-234.24 159.36z"/>
  <path d="m291.43 233.84 23.039-23.039c18.113-18.105 32.238-27.754 40.32-49.922-2.2656-0.92969-4.3516-2.0469-5.7617-3.8398-28.344 9.1055-42.441 41.602-65.281 49.922-5.2578 13.762-15.238 13.664-24.961 24.961-13.879 1.0977-6.3281-10.672-19.199-7.6797 0.60938-2.5938 2.7344-3.6641 1.9219-7.6797-23.145-15.199-36.07-42.664-59.52-48 0.023437-3.168 5.3281-1.0703 5.7617-3.8398-8.625-9.3047-24.32-23.047-36.48-7.6797 1.2578 28.391 26.727 40.246 44.16 57.602 15.922 15.848 28.434 29.91 42.238 42.238-30.289 27.48-57.098 56.863-84.48 82.559-2.0234 11.359 2.6562 20.062 11.52 21.129 10.617 1.2656 14.824-13.016 21.121-19.199 2.5586-2.5117 8.5352-3.0547 11.52-5.7617 21.785-19.793 43.496-55.191 61.441-65.281 17.742 23.777 44.719 44.273 65.281 65.281 7.3125 7.4727 17.383 27.184 30.719 15.359-6.7188-19.008-17.664-30.305-32.641-44.168-8.543-7.9023-16.727-14.809-26.871-24.953-4.2969-4.2969-27.129-21.152-26.879-26.879 0.13281-3.4102 19.508-17.617 23.031-21.129z"/>
 </g>
</svg>
