<?xml version="1.0" encoding="UTF-8"?>
<svg width="128pt" height="128pt" version="1.1" viewBox="0 0 128 128" xmlns="http://www.w3.org/2000/svg">
 <path d="m112.46 64c0.070312 5.6914-2.6562 11.055-7.2891 14.355l-61.363 44.836c-3.0195 2.2422-6.6758 3.4609-10.434 3.4766-2.8203-0.011719-5.6016-0.69141-8.1094-1.9805-2.9492-1.457-5.4297-3.7188-7.1523-6.5234-1.7188-2.8047-2.6133-6.0391-2.5781-9.332v-89.664c-0.035156-3.293 0.85938-6.5273 2.5781-9.332 1.7227-2.8047 4.2031-5.0664 7.1523-6.5234 2.918-1.5234 6.207-2.1875 9.4883-1.9219 3.2773 0.26172 6.418 1.4492 9.0547 3.418l61.363 44.836c4.6328 3.3008 7.3594 8.6641 7.2891 14.355z" fill="#fff"/>
</svg>
